<?xml version="1.0" encoding="UTF-8" standalone="no"?>
<!--
  - Copyright 2023 Jan-Hendrik Ewers
  - SPDX-License-Identifier: GPL-3.0-only
  -->

<!-- Created with Inkscape (http://www.inkscape.org/) -->

<svg
   width="1280"
   height="640"
   viewBox="0 0 338.66666 169.33334"
   version="1.1"
   id="svg5"
   inkscape:version="1.2.2 (b0a8486541, 2022-12-01)"
   sodipodi:docname="banner.svg"
   inkscape:export-filename="/home/jhewers/Documents/projects/jpdmgen/docs/_static/banner.png"
   inkscape:export-xdpi="96"
   inkscape:export-ydpi="96"
   xmlns:inkscape="http://www.inkscape.org/namespaces/inkscape"
   xmlns:sodipodi="http://sodipodi.sourceforge.net/DTD/sodipodi-0.dtd"
   xmlns="http://www.w3.org/2000/svg"
   xmlns:svg="http://www.w3.org/2000/svg">
  <sodipodi:namedview
     id="namedview7"
     pagecolor="#ffffff"
     bordercolor="#ffffff"
     borderopacity="1"
     inkscape:pageshadow="0"
     inkscape:pageopacity="1"
     inkscape:pagecheckerboard="true"
     inkscape:document-units="mm"
     showgrid="false"
     units="px"
     width="640px"
     inkscape:zoom="0.5165411"
     inkscape:cx="578.85036"
     inkscape:cy="469.46893"
     inkscape:window-width="1920"
     inkscape:window-height="1006"
     inkscape:window-x="0"
     inkscape:window-y="420"
     inkscape:window-maximized="1"
     inkscape:current-layer="layer1"
     inkscape:snap-global="false"
     inkscape:showpageshadow="0"
     inkscape:deskcolor="#d1d1d1" />
  <defs
     id="defs2">
    <clipPath
       clipPathUnits="userSpaceOnUse"
       id="clipPath18740">
      <path
         style="fill:none;stroke:#000000;stroke-width:0.264583px;stroke-linecap:butt;stroke-linejoin:miter;stroke-opacity:1"
         d="M 31.552832,10.44931 35.394493,83.594501 65.820433,78.83085 89.638719,48.251234 141.57795,32.577275 133.74097,2.9196596 Z"
         id="path18742" />
    </clipPath>
    <clipPath
       clipPathUnits="userSpaceOnUse"
       id="clipPath18861">
      <path
         style="fill:none;stroke:#000000;stroke-width:0.264583px;stroke-linecap:butt;stroke-linejoin:miter;stroke-opacity:1"
         d="m -50.505019,121.5501 c 1.843998,0 89.894831,-1.22933 89.894831,-1.22933 L 27.250178,75.142847 -1.3317784,49.941573 -25.918399,52.400229 -38.058042,74.98919 -59.264002,86.821505 -80.623627,98.653817 -72.78664,120.6281 Z"
         id="path18863" />
    </clipPath>
  </defs>
  <g
     inkscape:label="Layer 1"
     inkscape:groupmode="layer"
     id="layer1">
    <g
       id="g1853"
       transform="translate(9.4083975)">
      <text
         xml:space="preserve"
         style="font-weight:900;font-stretch:extra-condensed;font-size:52.6925px;line-height:1.25;font-family:Coolvetica;-inkscape-font-specification:'Coolvetica Heavy Extra-Condensed';fill:#1a1a1a;stroke-width:1.31732"
         x="142.58304"
         y="96.232681"
         id="text3551"><tspan
           sodipodi:role="line"
           id="tspan3549"
           style="font-style:normal;font-variant:normal;font-weight:normal;font-stretch:normal;font-family:Coolvetica;-inkscape-font-specification:Coolvetica;fill:#1a1a1a;stroke-width:1.31732"
           x="142.58304"
           y="96.232681">jDrones</tspan></text>
      <g
         id="g28255"
         transform="matrix(1.0731301,0,0,1.0731095,85.622696,19.977742)">
        <path
           style="fill:#970747;fill-opacity:1;stroke:#000000;stroke-width:0.264583px;stroke-linecap:butt;stroke-linejoin:miter;stroke-opacity:1"
           d="m -53.496217,23.325369 -8.258051,5.813228 -3.477072,7.008479 2.064509,7.280116 9.811171,3.451174 7.900172,-2.310254 c 0,0 13.799638,0.05433 14.234269,0.162986 0.434633,0.108659 7.606098,-5.378601 7.606098,-5.378601 l 3.314083,-7.93207 34.010126,-3.151098 0.488954,-14.614571 -3.803038,-0.434636 -3.9660405,9.290308 z"
           id="path22971" />
        <path
           style="fill:#000000;stroke-width:0.197354"
           d="m -64.713271,110.54355 c -1.26256,-0.54994 -2.21675,-2.29164 -1.97155,-3.5987 0.13476,-0.71832 4.66336,-9.75176 5.2189,-10.41042 0.4287,-0.50827 1.76402,-1.098247 2.48571,-1.098247 1.18055,0 2.14708,0.654947 3.44778,2.336327 l 1.23956,1.60234 5.72081,-9.818497 c 3.14645,-5.40018 5.9106,-10.02977 6.14257,-10.28798 0.88986,-0.99058 2.53999,-1.28831 3.80727,-0.68695 0.37522,0.17805 1.26951,0.97734 1.98731,1.77619 0.71781,0.79885 1.37013,1.45246 1.44961,1.45246 0.0795,0 3.63408,-6.23886 7.89911,-13.864137 4.26503,-7.625276 7.95939,-14.19535 8.20968,-14.600163 0.55114,-0.891384 1.73347,-1.533549 2.8235,-1.533549 0.80569,0 2.10825,0.530421 2.50897,1.021685 0.26812,0.328708 11.04864,19.755917 14.07793,25.369374 1.24324,2.30379 2.32041,4.19099 2.39371,4.19378 0.0733,0.003 0.71926,-0.73436 1.43546,-1.6381 0.77615,-0.97939 1.58205,-1.77664 1.99497,-1.97355 0.96614,-0.46072 2.19787,-0.41345 3.14633,0.12074 0.71786,0.40432 1.32002,1.35317 6.64312,10.46798 l 5.85371,10.023357 1.2263,-1.61094 c 1.28901,-1.69331 2.25255,-2.350367 3.44669,-2.350367 0.8554,0 2.14721,0.644907 2.60498,1.300477 0.88084,1.26145 5.19045,9.9631 5.18941,10.47809 -0.003,1.47664 -0.9462,2.91218 -2.23198,3.39694 -0.38641,0.14568 -15.10886,0.2071 -48.35178,0.20173 -39.29329,-0.006 -47.9033,-0.0544 -48.39808,-0.26987 z m 47.24509,-4.02909 c -0.47138,-0.52342 -5.73761,-6.34326 -11.70274,-12.932967 -10.32676,-11.40805 -10.85736,-11.95976 -11.08972,-11.53099 -0.13422,0.24767 -2.76974,4.75757 -5.85669,10.02199 -5.86703,10.005487 -6.07594,10.297877 -7.55637,10.575607 -1.59315,0.29888 -2.77571,-0.40121 -4.31974,-2.55734 -0.43418,-0.6063 -0.84147,-1.10427 -0.90509,-1.10661 -0.0636,-0.002 -0.58712,0.90604 -1.16333,2.01862 -0.57622,1.11259 -1.57506,3.02199 -2.21966,4.24312 l -1.17199,2.22023 h 23.42119 23.42118 z m 46.30796,-3.14344 c -1.15989,-2.2523 -2.17645,-4.16706 -2.25902,-4.25502 -0.0826,-0.088 -0.74944,0.56447 -1.48192,1.44984 -1.49887,1.81172 -2.26616,2.26068 -3.60551,2.10972 -1.80848,-0.20384 -1.84619,-0.25529 -7.84718,-10.704777 -3.03925,-5.29224 -5.61788,-9.74935 -5.73028,-9.9047 -0.16283,-0.22502 -0.48376,0.0678 -1.57884,1.44062 -0.75595,0.94768 -1.44553,1.84183 -1.5324,1.98698 -0.10305,0.17219 0.90876,2.2002 2.91096,5.8345 1.68791,3.06381 3.06893,5.779227 3.06893,6.034257 0,0.61787 -1.02052,1.61745 -1.65133,1.61745 -0.27366,0 -0.72414,-0.19982 -1.00106,-0.44405 -0.27693,-0.24422 -3.79602,-6.394277 -7.82021,-13.666777 -4.02419,-7.27251 -7.63123,-13.787657 -8.01565,-14.478117 l -0.69894,-1.25538 -1.21155,1.19532 c -1.28848,1.27122 -1.91932,1.61147 -2.98773,1.61147 -1.01458,0 -1.68743,-0.33018 -2.70482,-1.32728 l -0.92863,-0.910111 -0.89841,0.828121 c -1.03991,0.95856 -1.60276,1.21192 -2.69229,1.21192 -1.14682,0 -2.16842,-0.61498 -3.12394,-1.880561 -0.46402,-0.614597 -0.90914,-1.04236 -0.98915,-0.950585 -0.2957,0.339175 -8.69422,15.465073 -8.69422,15.658453 0,0.1103 4.62244,5.30653 10.27208,11.547177 l 10.27209,11.34663 h 21.51895 21.51896 z m -40.31267,-35.912292 c 0.62728,-0.620735 1.14051,-1.214254 1.14051,-1.318931 0,-0.241321 -5.78758,-10.767673 -5.92063,-10.768338 -0.11749,-5.92e-4 -5.59938,9.774328 -5.68095,10.12987 -0.0618,0.269463 1.84646,2.888654 2.1046,2.888654 0.0881,0 0.32923,-0.186823 0.53587,-0.415162 0.72937,-0.80594 2.01601,-1.40657 3.0131,-1.40657 1.11783,0 1.8521,0.346438 2.77972,1.311508 0.37406,0.389169 0.72672,0.707579 0.78369,0.707579 0.057,0 0.61681,-0.507874 1.24409,-1.12861 z m -34.21431,4.381718 c -0.28699,-0.15591 -0.62002,-0.56525 -0.74008,-0.90964 -0.14619,-0.41935 -0.21829,-3.386878 -0.21829,-8.984286 v -8.358107 h -6.13316 -6.13317 l -0.57688,-0.576883 c -0.71545,-0.715456 -0.7355,-1.375224 -0.066,-2.170934 l 0.51093,-0.607206 h 2.84409 2.8441 v -1.677512 -1.677511 h -2.63735 c -1.45054,0 -3.11533,-0.09065 -3.69954,-0.201441 -3.46538,-0.657196 -6.17317,-3.296869 -6.91097,-6.737127 -0.47641,-2.221419 0.11409,-5.796045 1.42421,-8.621539 2.14697,-4.630319 5.87093,-7.763373 10.99116,-9.247132 0.90779,-0.263061 2.42167,-0.349105 7.73989,-0.439906 l 6.61137,-0.11288 0.0552,-2.516268 0.0552,-2.516266 h -12.15204 -12.15216 l -0.48441,-0.484415 c -0.59655,-0.596552 -0.64514,-1.641583 -0.10722,-2.306019 l 0.3772,-0.465911 12.25348,-0.05372 12.25347,-0.05372 v -1.188716 c 0,-0.998953 0.0773,-1.266045 0.48442,-1.67313 1.24767,-1.247673 2.87061,-0.07463 2.87061,2.074852 v 0.795756 h 11.8284 c 7.34748,0 12.02356,0.07419 12.34354,0.195851 0.59263,0.225317 1.07075,1.19424 0.93632,1.897475 -0.0506,0.264639 -0.31525,0.656782 -0.58813,0.871429 -0.48192,0.379078 -0.84054,0.390267 -12.50814,0.390267 h -12.01199 v 2.565605 2.565606 h 21.01062 21.01061 l 0.20182,-0.740079 c 1.25275,-4.59391 2.17154,-7.602656 2.45267,-8.03172 0.66401,-1.013397 1.41742,-1.29172 3.49886,-1.292531 1.64235,-6.39e-4 1.98443,0.05899 2.56561,0.447243 1.33199,0.889831 1.3608,1.066392 1.35991,8.334284 -3.9e-4,3.618106 -0.0862,6.819693 -0.19299,7.203432 -0.26075,0.937111 -1.25378,2.096221 -2.21677,2.587501 -0.71103,0.362743 -2.42879,0.527163 -16.41064,1.570802 -8.58907,0.641107 -15.83637,1.234676 -16.10509,1.319039 -0.42074,0.132087 -0.55079,0.399654 -0.93638,1.926511 -1.67308,6.625042 -6.71391,10.976317 -13.72197,11.844869 l -0.93743,0.116183 v 1.665417 1.66542 h 2.87061 c 2.78466,0 2.88511,0.0145 3.35502,0.484416 0.53245,0.532448 0.64566,1.558797 0.23145,2.098292 -0.56349,0.733915 -0.96238,0.772315 -8.02294,0.772315 h -6.92038 v 8.667446 c 0,4.767097 -0.0552,8.811208 -0.12259,8.986918 -0.13137,0.34236 -1.07306,0.90206 -1.49578,0.88904 -0.14107,-0.004 -0.4913,-0.13546 -0.77828,-0.29137 z m -0.76101,-23.284568 v -1.677511 h -1.67752 -1.67751 v 1.677511 1.677512 h 1.67751 1.67752 z m 8.44487,-0.04934 0.0573,-1.628173 h -2.57358 -2.57359 v 1.683408 1.683407 l 2.51627,-0.05523 2.51626,-0.05523 z m 6.15934,-5.452275 c 4.47468,-1.477339 7.38762,-4.631163 8.49851,-9.201281 0.22427,-0.922631 0.6221,-2.005639 0.88407,-2.40668 0.5888,-0.9014 1.91162,-1.699298 3.06672,-1.849788 0.47967,-0.06249 7.68403,-0.625746 16.00971,-1.251675 10.57367,-0.794936 15.22965,-1.214466 15.44296,-1.391497 0.26314,-0.218383 0.30538,-1.069141 0.30538,-6.149908 v -5.896462 h -0.67673 c -0.77286,0 -0.57756,-0.482486 -2.10358,5.196852 -0.46177,1.718548 -1.01723,3.350477 -1.23436,3.626509 -0.21713,0.276032 -0.75699,0.666388 -1.1997,0.867457 -0.7706,0.349988 -1.935,0.365766 -27.29974,0.369915 l -26.49481,0.0043 v 4.368236 c 0,2.67566 -0.0864,4.656558 -0.22294,5.112342 -0.3452,1.152192 -1.52859,2.548231 -2.73737,3.22928 l -1.08545,0.611557 -6.2905,0.05972 -6.29049,0.05972 0.0999,0.885943 c 0.14666,1.301165 1.0484,2.625785 2.2974,3.374792 0.57821,0.346741 1.2855,0.668531 1.57175,0.715089 0.28625,0.04656 6.33747,0.07098 13.44716,0.05428 11.91063,-0.02798 13.01203,-0.05854 14.01215,-0.388735 z m -5.73845,-5.239012 c -0.49969,-0.499685 -0.57688,-0.724165 -0.57688,-1.677512 v -1.10063 h -1.10063 c -0.95335,0 -1.17783,-0.0772 -1.67751,-0.576882 -0.74857,-0.748563 -0.74857,-1.452695 0,-2.201258 0.49968,-0.499685 0.72416,-0.576882 1.67751,-0.576882 h 1.10063 v -1.100629 c 0,-0.953348 0.0772,-1.177827 0.57688,-1.677512 0.75503,-0.75503 1.62588,-0.775785 2.29418,-0.05468 0.39913,0.430667 0.48396,0.724718 0.48396,1.677511 v 1.155308 h 1.15531 c 1.43195,0 2.20355,0.56944 2.19344,1.618749 -0.0113,1.169764 -0.77771,1.736273 -2.34901,1.736273 h -0.99974 l -0.006,1.134788 c -0.007,1.187625 -0.2007,1.608515 -0.91818,1.990646 -0.69501,0.370162 -1.23795,0.268441 -1.85368,-0.347292 z m -13.59581,-3.077514 c 1.07903,-0.557984 1.17767,-1.030405 1.17767,-5.640079 v -4.182864 l -1.33214,0.114939 c -4.47468,0.386083 -8.6643,3.274841 -10.584,7.297714 -0.47808,1.001863 -0.91493,2.021389 -0.97077,2.265615 l -0.10152,0.444047 h 5.61592 c 4.63379,0 5.71717,-0.05236 6.19484,-0.299372 z"
           id="path18859" />
        <path
           style="fill:#cccccc;stroke:none;stroke-width:0.264583px;stroke-linecap:butt;stroke-linejoin:miter;stroke-opacity:1"
           d="m -16.348581,54.197975 -7.049226,10.960925 1.955851,3.694395 2.825129,0.760611 2.173171,-1.955861 3.259756,2.281836 4.7809687,-3.911714 z"
           id="path27865"
           sodipodi:nodetypes="cccccccc" />
        <path
           style="fill:#1a1a1a;fill-opacity:1;stroke:none;stroke-width:0.197354;stroke-opacity:1"
           d="m 40.154027,113.91419 c -1.26256,-0.54994 -2.216754,-2.29164 -1.971549,-3.5987 0.134758,-0.71832 4.663356,-9.75176 5.218901,-10.410417 0.428698,-0.50827 1.764014,-1.09825 2.485706,-1.09825 1.180553,0 2.147078,0.65495 3.447778,2.336327 l 1.239563,1.60234 5.720813,-9.818497 c 3.146448,-5.40018 5.910599,-10.02977 6.142564,-10.28798 0.889866,-0.99058 2.539992,-1.28831 3.807272,-0.68695 0.37522,0.17805 1.26951,0.97734 1.98731,1.77619 0.71781,0.79885 1.37013,1.45246 1.44961,1.45246 0.0795,0 3.63408,-6.23886 7.89911,-13.864137 4.26503,-7.625276 7.95939,-14.19535 8.20968,-14.600163 0.55114,-0.891384 1.73347,-1.533549 2.8235,-1.533549 0.80569,0 2.10825,0.530421 2.50897,1.021685 0.26812,0.328708 11.048645,19.755917 14.077935,25.369374 1.24323,2.30379 2.3204,4.19099 2.3937,4.19378 0.0733,0.003 0.71926,-0.73436 1.43546,-1.6381 0.77615,-0.97939 1.58206,-1.77664 1.99498,-1.97355 0.96614,-0.46072 2.19787,-0.41345 3.14633,0.12074 0.71786,0.40432 1.32002,1.35317 6.64312,10.46798 l 5.85371,10.023357 1.2263,-1.61094 c 1.28901,-1.693307 2.25255,-2.350367 3.44669,-2.350367 0.8554,0 2.14721,0.64491 2.60498,1.300477 0.88084,1.26145 5.19045,9.9631 5.18941,10.47809 -0.003,1.47664 -0.9462,2.91218 -2.23198,3.39694 -0.38641,0.14568 -15.10886,0.2071 -48.351785,0.20173 -39.293289,-0.006 -47.9033,-0.0544 -48.398078,-0.26987 z m 47.245088,-4.02909 c -0.47138,-0.52342 -5.73761,-6.34326 -11.70274,-12.932967 -10.32676,-11.40805 -10.85736,-11.95976 -11.08972,-11.53099 -0.13422,0.24767 -2.769735,4.75757 -5.856691,10.02199 -5.867025,10.005487 -6.075941,10.297877 -7.556368,10.575607 -1.593148,0.29888 -2.775707,-0.40121 -4.31974,-2.55734 -0.434179,-0.6063 -0.841469,-1.10427 -0.905088,-1.10661 -0.06362,-0.002 -0.58712,0.90604 -1.163336,2.01862 -0.576216,1.11259 -1.57506,3.02199 -2.219654,4.24312 l -1.171989,2.22023 h 23.421186 23.42118 z m 46.307965,-3.14344 c -1.15989,-2.2523 -2.17645,-4.16706 -2.25902,-4.25502 -0.0826,-0.088 -0.74944,0.56447 -1.48192,1.44984 -1.49887,1.81172 -2.26616,2.26068 -3.60551,2.10972 -1.80848,-0.20384 -1.84619,-0.25529 -7.84718,-10.704777 -3.03925,-5.29224 -5.61788,-9.74935 -5.73028,-9.9047 -0.16283,-0.22502 -0.48376,0.0678 -1.57884,1.44062 -0.75595,0.94768 -1.44554,1.84183 -1.53241,1.98698 -0.10305,0.17219 0.90877,2.2002 2.91097,5.8345 1.68791,3.06381 3.06893,5.779227 3.06893,6.034257 0,0.61787 -1.02052,1.61745 -1.65133,1.61745 -0.27366,0 -0.72414,-0.19982 -1.00106,-0.44405 -0.27693,-0.24422 -3.79603,-6.394277 -7.82021,-13.666777 -4.02419,-7.27251 -7.631235,-13.787657 -8.015655,-14.478117 l -0.69894,-1.25538 -1.21155,1.19532 c -1.28848,1.27122 -1.91932,1.61147 -2.98773,1.61147 -1.01458,0 -1.68743,-0.33018 -2.70482,-1.32728 l -0.92863,-0.910111 -0.89841,0.828121 c -1.03991,0.95856 -1.60276,1.21192 -2.69229,1.21192 -1.14682,0 -2.16842,-0.61498 -3.12394,-1.880561 -0.46402,-0.614597 -0.90914,-1.04236 -0.98915,-0.950585 -0.2957,0.339175 -8.69422,15.465073 -8.69422,15.658453 0,0.1103 4.62244,5.30653 10.27208,11.54718 l 10.27209,11.346627 h 21.518955 21.51896 z M 93.394405,70.829368 c 0.62728,-0.620735 1.14051,-1.214254 1.14051,-1.318931 0,-0.241321 -5.78758,-10.767673 -5.92063,-10.768338 -0.11749,-5.92e-4 -5.59938,9.774328 -5.68095,10.12987 -0.0618,0.269463 1.84646,2.888654 2.1046,2.888654 0.0881,0 0.32923,-0.186823 0.53587,-0.415162 0.72937,-0.80594 2.01601,-1.40657 3.0131,-1.40657 1.11783,0 1.8521,0.346438 2.77972,1.311508 0.37406,0.389169 0.72672,0.707579 0.78369,0.707579 0.057,0 0.61681,-0.507874 1.24409,-1.12861 z m -34.214313,4.381718 c -0.286985,-0.15591 -0.620021,-0.56525 -0.740079,-0.90964 -0.146184,-0.41935 -0.218286,-3.386878 -0.218286,-8.984286 V 56.959053 H 52.088564 45.9554 L 45.378518,56.38217 c -0.715457,-0.715456 -0.7355,-1.375224 -0.06595,-2.170934 l 0.510929,-0.607206 h 2.844093 2.844094 v -1.677512 -1.677511 h -2.637346 c -1.45054,0 -3.115332,-0.09065 -3.699538,-0.201441 -3.465383,-0.657196 -6.173171,-3.296869 -6.910974,-6.737127 -0.476409,-2.221419 0.114089,-5.796044 1.424207,-8.621538 2.146976,-4.63032 5.870931,-7.763373 10.991165,-9.247132 0.907784,-0.263061 2.421672,-0.349105 7.739886,-0.439906 l 6.611371,-0.11288 0.0552,-2.516268 0.0552,-2.516267 H 52.988765 40.83661 L 40.352194,19.372033 C 39.755642,18.775481 39.707055,17.73045 40.244978,17.066014 l 0.377199,-0.465911 12.253475,-0.05372 12.253473,-0.05372 v -1.188716 c 0,-0.998953 0.0773,-1.266045 0.48442,-1.67313 1.24767,-1.247673 2.87061,-0.07463 2.87061,2.074852 v 0.795756 h 11.8284 c 7.34748,0 12.02356,0.07419 12.34354,0.195851 0.59263,0.225317 1.07075,1.19424 0.93632,1.897475 -0.0506,0.264639 -0.31525,0.656782 -0.58813,0.871429 -0.48192,0.379078 -0.84054,0.390267 -12.50814,0.390267 h -12.01199 v 2.565606 2.565606 h 21.01062 21.010615 l 0.20182,-0.740079 c 1.25275,-4.593911 2.17154,-7.602657 2.45267,-8.031721 0.66401,-1.013397 1.41742,-1.29172 3.49886,-1.292531 1.64235,-6.39e-4 1.98443,0.05899 2.56561,0.447243 1.33199,0.889831 1.3608,1.066392 1.35991,8.334285 -3.9e-4,3.618106 -0.0862,6.819692 -0.19299,7.203431 -0.26075,0.937112 -1.25378,2.096222 -2.21677,2.587502 -0.71103,0.362743 -2.42879,0.527163 -16.41064,1.570802 -8.589075,0.641107 -15.836375,1.234676 -16.105095,1.319039 -0.42074,0.132087 -0.55079,0.399654 -0.93638,1.926511 -1.67308,6.625041 -6.71391,10.976316 -13.72197,11.844868 l -0.93743,0.116183 v 1.665417 1.66542 h 2.87061 c 2.78466,0 2.88511,0.0145 3.35502,0.484416 0.53245,0.532448 0.64566,1.558797 0.23145,2.098292 -0.56349,0.733915 -0.96238,0.772315 -8.02294,0.772315 H 61.57675 v 8.667446 c 0,4.767097 -0.05517,8.811208 -0.122593,8.986918 -0.131374,0.34236 -1.07306,0.90206 -1.495779,0.88904 -0.141071,-0.004 -0.4913,-0.13546 -0.778286,-0.29137 z M 58.419082,51.926518 V 50.249007 H 56.74157 55.064059 v 1.677511 1.677512 h 1.677511 1.677512 z m 8.444873,-0.04934 0.0573,-1.628173 h -2.573584 -2.573587 v 1.683408 1.683407 l 2.516267,-0.05523 2.516264,-0.05523 z m 6.15934,-5.452275 c 4.47468,-1.477339 7.38762,-4.631163 8.49851,-9.20128 0.22427,-0.922631 0.6221,-2.005639 0.88407,-2.40668 0.5888,-0.9014 1.91162,-1.699298 3.06672,-1.849788 0.47967,-0.06249 7.68403,-0.625746 16.009715,-1.251675 10.57367,-0.794937 15.22965,-1.214467 15.44296,-1.391498 0.26314,-0.218383 0.30538,-1.06914 0.30538,-6.149907 v -5.896463 h -0.67673 c -0.77286,0 -0.57756,-0.482486 -2.10358,5.196853 -0.46177,1.718548 -1.01723,3.350477 -1.23436,3.626509 -0.21713,0.276032 -0.75699,0.666388 -1.1997,0.867457 -0.7706,0.349988 -1.93501,0.365766 -27.299745,0.369915 l -26.494808,0.0043 v 4.368236 c 0,2.67566 -0.08638,4.656558 -0.222939,5.112342 -0.345205,1.152192 -1.528592,2.548231 -2.737375,3.229279 l -1.085448,0.611557 -6.290495,0.05972 -6.290495,0.05972 0.09986,0.885943 c 0.14666,1.301165 1.0484,2.625785 2.297401,3.374792 0.578209,0.346741 1.285496,0.668531 1.571747,0.715089 0.286252,0.04656 6.337475,0.07098 13.447162,0.05428 11.91063,-0.02798 13.01203,-0.05854 14.01215,-0.388735 z m -5.73845,-5.239012 c -0.49969,-0.499685 -0.57688,-0.724164 -0.57688,-1.677511 v -1.10063 h -1.10063 c -0.95335,0 -1.17783,-0.0772 -1.677514,-0.576882 -0.748565,-0.748563 -0.748565,-1.452695 0,-2.201258 0.499684,-0.499685 0.724164,-0.576882 1.677514,-0.576882 h 1.10063 v -1.100629 c 0,-0.953348 0.0772,-1.177827 0.57688,-1.677512 0.75503,-0.755031 1.62588,-0.775786 2.29418,-0.05468 0.39913,0.430667 0.48396,0.724718 0.48396,1.677511 v 1.155308 h 1.15531 c 1.43195,0 2.20355,0.56944 2.19344,1.618749 -0.0113,1.169764 -0.77771,1.736273 -2.34901,1.736273 h -0.99974 l -0.006,1.134788 c -0.007,1.187624 -0.2007,1.608514 -0.91818,1.990645 -0.69501,0.370162 -1.23795,0.268441 -1.85368,-0.347292 z M 53.689039,38.108378 c 1.079023,-0.557984 1.177666,-1.030405 1.177666,-5.640079 v -4.182864 l -1.332142,0.114939 c -4.474682,0.386083 -8.664295,3.274841 -10.583995,7.297714 -0.478084,1.001863 -0.914931,2.021389 -0.970769,2.265615 l -0.101524,0.444047 h 5.615921 c 4.633785,0 5.717166,-0.05236 6.194843,-0.299372 z"
           id="path18257"
           clip-path="url(#clipPath18740)"
           transform="translate(-104.8673,-3.370641)" />
        <path
           style="fill:#4d4d4d;stroke:#000000;stroke-width:0.264583px;stroke-linecap:butt;stroke-linejoin:miter;stroke-opacity:1"
           d="m -24.774144,66.57146 -9.235977,17.602684 -6.084884,-4.780968 -13.908289,21.949014 -4.346342,-4.454995 -6.628172,11.083165 2.716464,1.19526 94.858905,-0.21733 -4.672315,-10.974509 -3.803049,0.325972 -1.41257,3.368427 -14.9948753,-21.731711 -5.4329269,5.432925 -9.9965876,-18.580616 -4.5636492,4.129021 -4.563661,-3.259754 -3.803049,2.39049 z"
           id="path28033" />
        <path
           style="fill:#1a1a1a;stroke-width:0.197354"
           d="m -67.258777,114.52883 c -1.26256,-0.54994 -2.216754,-2.29164 -1.971549,-3.5987 0.134758,-0.71832 4.663356,-9.75176 5.218901,-10.41042 0.428698,-0.50827 1.764014,-1.098247 2.485706,-1.098247 1.180553,0 2.147078,0.654947 3.447778,2.336327 l 1.239563,1.60234 5.720813,-9.818497 c 3.146448,-5.40018 5.910599,-10.02977 6.142564,-10.28798 0.889866,-0.99058 2.539992,-1.28831 3.807272,-0.68695 0.37522,0.17805 1.26951,0.97734 1.98731,1.77619 0.71781,0.79885 1.37013,1.45246 1.44961,1.45246 0.0795,0 3.63408,-6.23886 7.89911,-13.864137 4.26503,-7.625276 7.95939,-14.19535 8.20968,-14.600163 0.55114,-0.891384 1.73347,-1.533549 2.8235,-1.533549 0.80569,0 2.10825,0.530421 2.50897,1.021685 0.26812,0.328708 11.0486398,19.755917 14.0779298,25.369374 1.24323796,2.30379 2.32040796,4.19099 2.39370796,4.19378 0.0733,0.003 0.71926,-0.73436 1.43546004,-1.6381 0.77615,-0.97939 1.582057,-1.77664 1.994977,-1.97355 0.96614,-0.46072 2.19787,-0.41345 3.14633,0.12074 0.71786,0.40432 1.32002,1.35317 6.6431202,10.46798 l 5.85371,10.023357 1.2263,-1.61094 c 1.28901,-1.69331 2.25255,-2.350367 3.44669,-2.350367 0.8554,0 2.14721,0.644907 2.60498,1.300477 0.88084,1.26145 5.19045,9.9631 5.18941,10.47809 -0.003,1.47664 -0.9462,2.91218 -2.23198,3.39694 -0.38641,0.14568 -15.10886,0.2071 -48.351785,0.20173 -39.293289,-0.006 -47.9033,-0.0544 -48.398078,-0.26987 z m 47.245088,-4.02909 c -0.47138,-0.52342 -5.73761,-6.34326 -11.70274,-12.932967 -10.32676,-11.40805 -10.85736,-11.95976 -11.08972,-11.53099 -0.13422,0.24767 -2.769735,4.75757 -5.856691,10.02199 -5.867025,10.005487 -6.075941,10.297877 -7.556368,10.575607 -1.593148,0.29888 -2.775707,-0.40121 -4.31974,-2.55734 -0.434179,-0.6063 -0.841469,-1.10427 -0.905088,-1.10661 -0.06362,-0.002 -0.58712,0.90604 -1.163336,2.01862 -0.576216,1.11259 -1.57506,3.02199 -2.219654,4.24312 l -1.171989,2.22023 h 23.421186 23.42118 z m 46.307965,-3.14344 c -1.15989,-2.2523 -2.17645,-4.16706 -2.25902,-4.25502 -0.0826,-0.088 -0.74944,0.56447 -1.48192,1.44984 -1.49887,1.81172 -2.26616,2.26068 -3.60551,2.10972 -1.80848,-0.20384 -1.84619,-0.25529 -7.84718,-10.704777 -3.0392502,-5.29224 -5.6178802,-9.74935 -5.7302802,-9.9047 -0.16283,-0.22502 -0.48376,0.0678 -1.57884,1.44062 -0.75595,0.94768 -1.445537,1.84183 -1.532407,1.98698 -0.10305,0.17219 0.908767,2.2002 2.910967,5.8345 1.68791,3.06381 3.06893,5.779227 3.06893,6.034257 0,0.61787 -1.02052,1.61745 -1.65133,1.61745 -0.27366,0 -0.72414,-0.19982 -1.00106,-0.44405 -0.27693,-0.24422 -3.796027,-6.394277 -7.820215,-13.666777 -4.02419,-7.27251 -7.63123,-13.787657 -8.0156498,-14.478117 l -0.69894,-1.25538 -1.21155,1.19532 c -1.28848,1.27122 -1.91932,1.61147 -2.98773,1.61147 -1.01458,0 -1.68743,-0.33018 -2.70482,-1.32728 l -0.92863,-0.910111 -0.89841,0.828121 c -1.03991,0.95856 -1.60276,1.21192 -2.69229,1.21192 -1.14682,0 -2.16842,-0.61498 -3.12394,-1.880561 -0.46402,-0.614597 -0.90914,-1.04236 -0.98915,-0.950585 -0.2957,0.339175 -8.69422,15.465073 -8.69422,15.658453 0,0.1103 4.62244,5.30653 10.27208,11.547177 l 10.27209,11.34663 H 6.8842058 28.403166 Z M -14.018399,71.444008 c 0.62728,-0.620735 1.14051,-1.214254 1.14051,-1.318931 0,-0.241321 -5.78758,-10.767673 -5.92063,-10.768338 -0.11749,-5.92e-4 -5.59938,9.774328 -5.68095,10.12987 -0.0618,0.269463 1.84646,2.888654 2.1046,2.888654 0.0881,0 0.32923,-0.186823 0.53587,-0.415162 0.72937,-0.80594 2.01601,-1.40657 3.0131,-1.40657 1.11783,0 1.8521,0.346438 2.77972,1.311508 0.37406,0.389169 0.72672,0.707579 0.78369,0.707579 0.057,0 0.61681,-0.507874 1.24409,-1.12861 z m -34.214313,4.381718 c -0.286985,-0.15591 -0.620021,-0.56525 -0.740079,-0.90964 -0.146184,-0.41935 -0.218286,-3.386878 -0.218286,-8.984286 v -8.358107 h -6.133163 -6.133164 l -0.576882,-0.576883 c -0.715457,-0.715456 -0.7355,-1.375224 -0.06595,-2.170934 l 0.510929,-0.607206 h 2.844093 2.844094 v -1.677512 -1.677511 h -2.637346 c -1.45054,0 -3.115332,-0.09065 -3.699538,-0.201441 -3.465383,-0.657196 -6.173171,-3.296869 -6.910974,-6.737127 -0.476409,-2.221419 0.114089,-5.796044 1.424207,-8.621538 2.146976,-4.63032 5.870931,-7.763373 10.991165,-9.247132 0.907784,-0.263061 2.421672,-0.349105 7.739886,-0.439906 l 6.611371,-0.11288 0.0552,-2.516268 0.0552,-2.516267 h -12.15209 -12.152155 l -0.484416,-0.484415 c -0.596552,-0.596552 -0.645139,-1.641583 -0.107216,-2.306019 l 0.377199,-0.465911 12.253475,-0.05372 12.253473,-0.05372 v -1.188716 c 0,-0.998953 0.0773,-1.266045 0.48442,-1.67313 1.24767,-1.247673 2.87061,-0.07463 2.87061,2.074852 v 0.795756 h 11.8284 c 7.34748,0 12.02356,0.07419 12.34354,0.195851 0.59263,0.225317 1.07075,1.19424 0.93632,1.897475 -0.0506,0.264639 -0.31525,0.656782 -0.58813,0.871429 -0.48192,0.379078 -0.84054,0.390267 -12.50814,0.390267 h -12.01199 v 2.565606 2.565606 h 21.01062 21.0106148 l 0.20182,-0.740079 c 1.25275,-4.593911 2.17154,-7.602657 2.45267,-8.031721 0.66401,-1.013397 1.41742,-1.29172 3.49886,-1.292531 1.6423502,-6.39e-4 1.9844302,0.05899 2.5656102,0.447243 1.33199,0.889831 1.3608,1.066392 1.35991,8.334285 -3.9e-4,3.618106 -0.0862,6.819692 -0.19299,7.203431 -0.26075,0.937112 -1.25378,2.096222 -2.21677,2.587502 -0.71103,0.362743 -2.4287902,0.527163 -16.4106452,1.570802 -8.5890698,0.641107 -15.8363698,1.234676 -16.1050898,1.319039 -0.42074,0.132087 -0.55079,0.399654 -0.93638,1.926511 -1.67308,6.625041 -6.71391,10.976316 -13.72197,11.844868 l -0.93743,0.116183 v 1.665417 1.66542 h 2.87061 c 2.78466,0 2.88511,0.0145 3.35502,0.484416 0.53245,0.532448 0.64566,1.558797 0.23145,2.098292 -0.56349,0.733915 -0.96238,0.772315 -8.02294,0.772315 h -6.920375 v 8.667446 c 0,4.767097 -0.05517,8.811208 -0.122593,8.986918 -0.131374,0.34236 -1.07306,0.90206 -1.495779,0.88904 -0.141071,-0.004 -0.4913,-0.13546 -0.778286,-0.29137 z m -0.76101,-23.284568 v -1.677511 h -1.677512 -1.677511 v 1.677511 1.677512 h 1.677511 1.677512 z m 8.444873,-0.04934 0.0573,-1.628173 h -2.573584 -2.573587 v 1.683408 1.683407 l 2.516267,-0.05523 2.516264,-0.05523 z m 6.15934,-5.452275 c 4.47468,-1.477339 7.38762,-4.631163 8.49851,-9.20128 0.22427,-0.922631 0.6221,-2.005639 0.88407,-2.40668 0.5888,-0.9014 1.91162,-1.699298 3.06672,-1.849788 0.47967,-0.06249 7.68403,-0.625746 16.0097098,-1.251675 10.573675,-0.794937 15.229655,-1.214467 15.442965,-1.391498 0.26314,-0.218383 0.30538,-1.06914 0.30538,-6.149907 v -5.896463 h -0.67673 c -0.77286,0 -0.57756,-0.482486 -2.10358,5.196853 -0.46177,1.718548 -1.01723,3.350477 -1.23436,3.626509 -0.21713,0.276032 -0.75699,0.666388 -1.1997,0.867457 -0.7706,0.349988 -1.935007,0.365766 -27.2997448,0.369915 l -26.494808,0.0043 v 4.368236 c 0,2.67566 -0.08638,4.656558 -0.222939,5.112342 -0.345205,1.152192 -1.528592,2.548231 -2.737375,3.229279 l -1.085448,0.611557 -6.290495,0.05972 -6.290495,0.05972 0.09986,0.885943 c 0.14666,1.301165 1.0484,2.625785 2.297401,3.374792 0.578209,0.346741 1.285496,0.668531 1.571747,0.715089 0.286252,0.04656 6.337475,0.07098 13.447162,0.05428 11.91063,-0.02798 13.01203,-0.05854 14.01215,-0.388735 z m -5.73845,-5.239012 c -0.49969,-0.499685 -0.57688,-0.724164 -0.57688,-1.677511 v -1.10063 h -1.10063 c -0.95335,0 -1.17783,-0.0772 -1.677514,-0.576882 -0.748565,-0.748563 -0.748565,-1.452695 0,-2.201258 0.499684,-0.499685 0.724164,-0.576882 1.677514,-0.576882 h 1.10063 v -1.100629 c 0,-0.953348 0.0772,-1.177827 0.57688,-1.677512 0.75503,-0.755031 1.62588,-0.775786 2.29418,-0.05468 0.39913,0.430667 0.48396,0.724718 0.48396,1.677511 v 1.155308 h 1.15531 c 1.43195,0 2.20355,0.56944 2.19344,1.618749 -0.0113,1.169764 -0.77771,1.736273 -2.34901,1.736273 h -0.99974 l -0.006,1.134788 c -0.007,1.187624 -0.2007,1.608514 -0.91818,1.990645 -0.69501,0.370162 -1.23795,0.268441 -1.85368,-0.347292 z m -13.595806,-3.077513 c 1.079023,-0.557984 1.177666,-1.030405 1.177666,-5.640079 v -4.182864 l -1.332142,0.114939 c -4.474682,0.386083 -8.664295,3.274841 -10.583995,7.297714 -0.478084,1.001863 -0.914931,2.021389 -0.970769,2.265615 l -0.101524,0.444047 h 5.615921 c 4.633785,0 5.717166,-0.05236 6.194843,-0.299372 z"
           id="path18558"
           clip-path="url(#clipPath18861)"
           transform="translate(2.545508,-3.98528)" />
      </g>
    </g>
  </g>
</svg>
